<svg id="Layer_5" enable-background="new 0 0 64 64" height="512" viewBox="0 0 64 64" width="512" xmlns="http://www.w3.org/2000/svg"><path d="m55.304 13.509c1.638-1.283 2.696-3.272 2.696-5.509 0-3.86-3.14-7-7-7s-7 3.14-7 7c0 2.244 1.065 4.239 2.712 5.521-.601.188-1.182.433-1.744.723-3.639-2.665-8.122-4.244-12.968-4.244s-9.329 1.579-12.969 4.244c-.562-.29-1.142-.535-1.744-.723 1.648-1.282 2.713-3.277 2.713-5.521 0-3.86-3.14-7-7-7s-7 3.14-7 7c0 2.237 1.058 4.226 2.696 5.509-4.456 1.406-7.696 5.577-7.696 10.491v10c0 2.757 2.243 5 5 5v20c0 2.206 1.794 4 4 4 1.2 0 2.266-.542 3-1.382.734.84 1.8 1.382 3 1.382 2.206 0 4-1.794 4-4v-8.575c3.454 2.257 7.575 3.575 12 3.575s8.546-1.318 12-3.575v8.575c0 2.206 1.794 4 4 4 1.2 0 2.266-.542 3-1.382.734.84 1.8 1.382 3 1.382 2.206 0 4-1.794 4-4v-20c2.757 0 5-2.243 5-5v-10c0-4.914-3.24-9.085-7.696-10.491zm-9.304-5.509c0-2.757 2.243-5 5-5s5 2.243 5 5-2.243 5-5 5-5-2.243-5-5zm3.294 34h-7.074c.975-2.536 1.647-5.525 1.758-9h7.972c-.163 3.267-1.104 6.327-2.656 9zm-20.79-29.674c-1.819 1.595-4.106 4.101-5.853 7.674h-6.613c2.985-3.959 7.392-6.774 12.466-7.674zm3.496 39.506c-1.246-.797-4.61-3.254-7.096-7.832h14.192c-2.486 4.578-5.85 7.035-7.096 7.832zm-8.062-9.832c-1.049-2.479-1.795-5.464-1.915-9h19.956c-.121 3.536-.866 6.521-1.915 9zm-1.916-11c.121-3.536.866-6.521 1.915-9h16.125c1.049 2.479 1.795 5.464 1.915 9zm2.882-11c2.486-4.578 5.85-7.035 7.096-7.832 1.246.797 4.61 3.254 7.096 7.832zm-10.198 2h7.074c-.975 2.536-1.647 5.525-1.758 9h-7.972c.163-3.267 1.104-6.327 2.656-9zm-2.655 11h7.972c.11 3.475.782 6.464 1.758 9h-7.074c-1.553-2.673-2.494-5.733-2.656-9zm10.6 11c1.746 3.573 4.034 6.079 5.853 7.674-5.074-.9-9.482-3.715-12.466-7.674zm18.698 0h6.613c-2.984 3.959-7.392 6.774-12.466 7.674 1.819-1.595 4.106-4.101 5.853-7.674zm2.629-13c-.11-3.475-.782-6.464-1.758-9h7.074c1.552 2.673 2.493 5.733 2.656 9zm-2.629-11c-1.746-3.573-4.034-6.079-5.853-7.674 5.074.9 9.482 3.715 12.466 7.674zm-33.349-12c0-2.757 2.243-5 5-5s5 2.243 5 5-2.243 5-5 5-5-2.243-5-5zm2 53c-1.103 0-2-.897-2-2v-37h-2v15c-1.654 0-3-1.346-3-3v-10c0-4.962 4.038-9 9-9h2c1.14 0 2.26.228 3.308.642-4.483 4.03-7.308 9.87-7.308 16.358 0 3.263.72 6.36 2 9.148v17.852c0 1.103-.897 2-2 2zm8-2c0 1.103-.897 2-2 2s-2-.897-2-2v-14.374c1.137 1.616 2.481 3.076 4 4.332zm30 2c-1.103 0-2-.897-2-2v-10.042c1.519-1.257 2.863-2.716 4-4.332v14.374c0 1.103-.897 2-2 2zm13-27c0 1.654-1.346 3-3 3v-15h-2v37c0 1.103-.897 2-2 2s-2-.897-2-2v-17.852c1.28-2.788 2-5.885 2-9.148 0-6.488-2.825-12.328-7.308-16.358 1.048-.415 2.168-.642 3.308-.642h2c4.962 0 9 4.038 9 9z"/><path d="m28.372 8.071-3.014-1.206c2.157-.568 4.382-.865 6.642-.865 3.314 0 6.541.614 9.592 1.826l.738-1.858c-3.287-1.306-6.762-1.968-10.33-1.968-2.409 0-4.784.311-7.088.913l1.017-2.541-1.857-.743-2.372 5.928 5.928 2.372z"/><path d="m35.628 55.929 3.003 1.201c-5.316 1.392-11.061 1.083-16.179-.938l-.734 1.86c3.273 1.292 6.732 1.948 10.282 1.948 2.409 0 4.784-.311 7.088-.913l-1.017 2.541 1.857.743 2.371-5.929-5.928-2.372z"/><path d="m24 35h2v2h-2z"/><path d="m28 35h2v2h-2z"/><path d="m32 35h2v2h-2z"/><path d="m38 27h2v2h-2z"/><path d="m34 27h2v2h-2z"/><path d="m30 27h2v2h-2z"/></svg>