<svg height="496pt" viewBox="0 0 496 496" width="496pt" xmlns="http://www.w3.org/2000/svg"><path d="m496 96v-32c0-4.414062-3.574219-8-8-8h-12.6875l10.34375-10.34375c1.503906-1.496094 2.34375-3.535156 2.34375-5.65625s-.839844-4.160156-2.34375-5.65625l-24-24c-3.128906-3.128906-8.183594-3.128906-11.3125 0l-10.34375 10.335938v-12.679688c0-4.414062-3.574219-8-8-8h-32c-4.425781 0-8 3.585938-8 8v12.679688l-10.34375-10.335938c-3.128906-3.128906-8.183594-3.128906-11.3125 0l-24 24c-1.503906 1.496094-2.34375 3.535156-2.34375 5.65625s.839844 4.160156 2.34375 5.65625l10.34375 10.34375h-12.6875c-4.425781 0-8 3.585938-8 8v24.398438c-11.191406.800781-21.910156 3.234374-31.96875 7.089843-12.765625-4.894531-26.199219-7.488281-40.03125-7.488281h-40c-5.367188 0-10.703125.511719-16 1.273438v-81.273438c0-4.414062-3.574219-8-8-8h-192c-4.425781 0-8 3.585938-8 8v168c0 4.414062 3.574219 8 8 8h105.230469c-.671875 4.695312-1.140625 9.425781-1.214844 14.191406l-55.261719 118.425782c-1.160156 2.480468-.96875 5.375.492188 7.679687 1.464844 2.304687 4.019531 3.703125 6.753906 3.703125h48v96c0 4.425781 3.574219 8 8 8h80v64h16v-72c0-4.425781-3.574219-8-8-8h-80v-96c0-4.425781-3.574219-8-8-8h-43.441406l50.6875-108.617188c.496094-1.054687.753906-2.214843.753906-3.382812 0-5.390625.609375-10.726562 1.488281-16h28.289063l38.101562 22.855469c1.273438.769531 2.695313 1.144531 4.121094 1.144531 1.359375 0 2.71875-.34375 3.945312-1.039062 2.511719-1.417969 4.054688-4.082032 4.054688-6.960938v-94.511719c5.28125-.886719 10.617188-1.488281 16-1.488281h40c6.558594 0 13.023438.671875 19.34375 1.96875-30.375 19.664062-50.710938 53.566406-51.328125 92.230469l-55.261719 118.425781c-1.160156 2.480469-.96875 5.375.492188 7.679688 1.464844 2.304687 4.019531 3.695312 6.753906 3.695312h48v96c0 4.425781 3.574219 8 8 8h80v64h16v-72c0-4.425781-3.574219-8-8-8h-80v-96c0-4.425781-3.574219-8-8-8h-43.441406l50.6875-108.617188c.496094-1.054687.753906-2.214843.753906-3.382812 0-52.9375 43.0625-96 96-96h12.6875l-10.34375 10.34375c-1.503906 1.496094-2.34375 3.535156-2.34375 5.65625s.839844 4.160156 2.34375 5.65625l24 24c3.128906 3.128906 8.183594 3.128906 11.3125 0l10.34375-10.335938v12.679688c0 4.414062 3.574219 8 8 8h32c4.425781 0 8-3.585938 8-8v-12.679688l10.34375 10.335938c3.128906 3.128906 8.183594 3.128906 11.3125 0l2.449219-2.449219c10.269531 15.59375 15.894531 33.976563 15.894531 52.792969v86.238281l-47.265625 102.410157c-.488281 1.046874-.734375 2.191406-.734375 3.351562v104h16v-102.238281l47.265625-102.410157c.488281-1.046874.734375-2.191406.734375-3.351562v-88c0-23.054688-7.199219-45.566406-20.359375-64.328125l10.015625-10.015625c1.503906-1.496094 2.34375-3.535156 2.34375-5.65625s-.839844-4.160156-2.34375-5.65625l-10.34375-10.34375h12.6875c4.425781 0 8-3.585938 8-8zm-331.878906 73.144531c-1.25-.753906-2.664063-1.144531-4.121094-1.144531h-144v-16h144v-16h-144v-120h176v16h-144v16h144v137.871094zm315.878906-81.144531h-10.351562c-3.535157 0-6.65625 2.328125-7.664063 5.71875-.839844 2.824219-1.976563 5.625-3.375 8.3125-1.609375 3.097656-1.023437 6.871094 1.445313 9.335938l8.632812 8.632812-12.6875 12.6875-8.632812-8.632812c-2.472657-2.480469-6.246094-3.054688-9.335938-1.445313-2.703125 1.398437-5.503906 2.535156-8.3125 3.367187-3.390625 1.015626-5.71875 4.136719-5.71875 7.671876v10.351562h-16v-10.351562c0-3.535157-2.328125-6.664063-5.71875-7.664063-2.546875-.761719-5.167969-1.847656-8.25-3.449219-3.085938-1.589844-6.855469-1.015625-9.328125 1.457032l-8.703125 8.695312-12.6875-12.6875 8.703125-8.695312c2.464844-2.464844 3.046875-6.242188 1.449219-9.335938-1.578125-3.058594-2.679688-5.679688-3.449219-8.25-1.007813-3.390625-4.128906-5.71875-7.664063-5.71875h-10.351562v-16h10.351562c3.535157 0 6.65625-2.328125 7.664063-5.71875.839844-2.824219 1.976563-5.625 3.375-8.3125 1.609375-3.097656 1.023437-6.871094-1.445313-9.335938l-8.632812-8.632812 12.6875-12.6875 8.632812 8.632812c2.472657 2.460938 6.238282 3.039063 9.335938 1.445313 2.703125-1.398437 5.503906-2.535156 8.3125-3.367187 3.390625-1.015626 5.71875-4.136719 5.71875-7.671876v-10.351562h16v10.351562c0 3.535157 2.328125 6.664063 5.71875 7.664063 2.527344.753906 5.226562 1.878906 8.242188 3.441406 3.09375 1.597657 6.863281 1.015625 9.335937-1.449219l8.703125-8.695312 12.6875 12.6875-8.703125 8.695312c-2.464844 2.464844-3.046875 6.242188-1.449219 9.335938 1.578125 3.058594 2.679688 5.679688 3.449219 8.25 1.007813 3.390625 4.128906 5.71875 7.664063 5.71875h10.351562zm0 0"/><path d="m416 48c-17.648438 0-32 14.351562-32 32s14.351562 32 32 32 32-14.351562 32-32-14.351562-32-32-32zm0 48c-8.824219 0-16-7.175781-16-16s7.175781-16 16-16 16 7.175781 16 16-7.175781 16-16 16zm0 0"/><path d="m336 256c13.230469 0 24-10.769531 24-24s-10.769531-24-24-24-24 10.769531-24 24 10.769531 24 24 24zm0-32c4.414062 0 8 3.59375 8 8s-3.585938 8-8 8-8-3.59375-8-8 3.585938-8 8-8zm0 0"/><path d="m391.839844 235.144531 46.230468-53.9375-12.140624-10.414062-36.976563 43.144531c-7.539063-22.035156-28.402344-37.9375-52.953125-37.9375-4.328125 0-8.527344.542969-12.574219 1.472656l12.382813-55.746094-15.625-3.46875-14.878906 66.949219c-.960938.632813-1.871094 1.3125-2.785157 2l-8.871093-8.871093-11.3125 11.3125 8.871093 8.871093c-5.480469 7.328125-9.207031 16.015625-10.566406 25.480469h-16.640625v16h16.640625c1.359375 9.464844 5.085937 18.152344 10.574219 25.472656l-8.871094 8.871094 11.3125 11.3125 8.871094-8.871094c7.320312 5.488282 16.007812 9.207032 25.472656 10.574219v16.640625h16v-16.640625c9.464844-1.359375 18.152344-5.085937 25.472656-10.574219l8.871094 8.871094 11.3125-11.3125-8.871094-8.871094c6.414063-8.5625 10.421875-18.992187 11.054688-30.328125zm-15.839844-3.144531c0 22.054688-17.945312 40-40 40s-40-17.945312-40-40 17.945312-40 40-40 40 17.945312 40 40zm0 0"/><path d="m56 64c-13.230469 0-24 10.769531-24 24s10.769531 24 24 24 24-10.769531 24-24-10.769531-24-24-24zm0 32c-4.414062 0-8-3.59375-8-8s3.585938-8 8-8 8 3.59375 8 8-3.585938 8-8 8zm0 0"/><path d="m112 64c-13.230469 0-24 10.769531-24 24s10.769531 24 24 24 24-10.769531 24-24-10.769531-24-24-24zm0 32c-4.414062 0-8-3.59375-8-8s3.585938-8 8-8 8 3.59375 8 8-3.585938 8-8 8zm0 0"/></svg>