<svg id="Layer_1" height="512" viewBox="0 0 128 128" width="512" xmlns="http://www.w3.org/2000/svg" data-name="Layer 1"><path d="m113.66 23.69q-.345-.435-.72-.87a63.786 63.786 0 0 0 -48.02-22.8c-.31-.01-.61-.02-.92-.02s-.61.01-.92.02a63.789 63.789 0 0 0 -48.15 22.96 6.164 6.164 0 0 0 -.47.57.138.138 0 0 1 -.03.04 63.8 63.8 0 0 0 0 80.82.138.138 0 0 1 .03.04 6.171 6.171 0 0 0 .47.57l.01.01a63.776 63.776 0 0 0 48.14 22.95c.614.02 1.226.02 1.84 0a63.786 63.786 0 0 0 48.02-22.8q.375-.435.72-.87a63.826 63.826 0 0 0 0-80.62zm-14.17 38.56a106.208 106.208 0 0 0 -4.07-28.03 69.57 69.57 0 0 0 16.19-7.51 60.158 60.158 0 0 1 12.86 35.54zm-33.74-58.66c10.69 1.1 19.99 12.14 25.36 28.3a100.612 100.612 0 0 1 -25.36 3.58zm-3.5 31.88a100.612 100.612 0 0 1 -25.36-3.58c5.37-16.16 14.67-27.2 25.36-28.3zm0 3.5v23.28h-30.24a104.4 104.4 0 0 1 3.85-27.02 104.159 104.159 0 0 0 26.39 3.74zm0 26.78v23.28a104.161 104.161 0 0 0 -26.39 3.74 104.4 104.4 0 0 1 -3.85-27.02zm0 26.78v31.88c-10.69-1.1-19.99-12.14-25.36-28.3a100.612 100.612 0 0 1 25.36-3.58zm3.5 0a100.612 100.612 0 0 1 25.36 3.58c-5.37 16.16-14.67 27.2-25.36 28.3zm0-3.5v-23.28h30.24a104.477 104.477 0 0 1 -3.85 27.03 103.333 103.333 0 0 0 -26.39-3.75zm0-26.78v-23.28a103.33 103.33 0 0 0 26.39-3.75 104.478 104.478 0 0 1 3.85 27.03zm43.6-38.26a66.171 66.171 0 0 1 -14.98 6.91c-3.84-11.42-9.61-20.5-16.48-25.79a60.6 60.6 0 0 1 31.46 18.88zm-59.24-18.88c-6.87 5.29-12.64 14.37-16.48 25.79a67.031 67.031 0 0 1 -14.98-6.9 60.513 60.513 0 0 1 31.46-18.89zm-33.72 21.59a69.605 69.605 0 0 0 16.19 7.53 106.07 106.07 0 0 0 -4.07 28.02h-24.98a60.188 60.188 0 0 1 12.86-35.55zm12.12 39.05a106.069 106.069 0 0 0 4.07 28.02v.01a69.183 69.183 0 0 0 -16.19 7.52 60.188 60.188 0 0 1 -12.86-35.55zm-9.86 38.25a67.031 67.031 0 0 1 14.98-6.9c3.84 11.42 9.61 20.5 16.48 25.79a60.514 60.514 0 0 1 -31.46-18.89zm59.24 18.89c6.87-5.29 12.64-14.37 16.48-25.79a66.169 66.169 0 0 1 14.98 6.91 60.6 60.6 0 0 1 -31.46 18.88zm33.72-21.6a69.573 69.573 0 0 0 -16.19-7.51 106.208 106.208 0 0 0 4.07-28.03h24.98a60.158 60.158 0 0 1 -12.86 35.54z"/></svg>